<svg height="512" viewBox="0 0 60 47" width="512" xmlns="http://www.w3.org/2000/svg"><g id="Page-1" fill="none" fill-rule="evenodd"><g id="012---Beaver" fill="rgb(0,0,0)" fill-rule="nonzero"><path id="Shape" d="m55 4h-4.527c-1.1862374-2.85921455-4.2281236-4.48116345-7.2632814-3.87281786-3.0351578.60834558-5.2170051 3.27730272-5.2097186 6.37281786.0041679.80241273.1591952 1.59688533.457 2.342-4.7043709 1.2764153-9.1319168 3.4123782-13.059 6.3-.5193493-1.0473109-1.1000245-2.063075-1.739-3.042-1.892-2.914-6.85-8.6-12.071-9.239-2.16242206-.29562003-4.34011457.4244949-5.9 1.951-3.966 3.688-5.04 10.369-5.503 15.069-.537 5.381-.085 17.181 5.481 23.327 2.1350633 2.4527646 5.2425014 3.8400268 8.494 3.792h34.85c1.6495368-.0136581 2.9818496-1.3504268 2.99-3 .000022-2.7536321-2.2263899-4.9889855-4.98-5h-2.837c.533933-1.2662601.8116157-2.6257838.817-4 0-.128-.018-.253-.022-.381l1.789-.894c1.6255072-.8103918 3.4166837-1.2331135 5.233-1.235.5835654-.002961 1.1592752-.1347665 1.686-.386l1.593.361c.3518531.0883492.7239593-.0207866.9723546-.285184s.3341176-.6425843.224002-.9882441c-.1101157-.3456599-.3987971-.6045743-.7543566-.6765719l-.258-.059c.1706161-.3036105.3004041-.6284166.386-.966h1.151c.5522847 0 1-.4477153 1-1s-.4477153-1-1-1h-1.134c-.094399-.3386901-.2350575-.6627431-.418-.963l.273-.062c.5269237-.1323089.8518209-.6611103.7317237-1.1909507s-.6412495-.8668706-1.1737237-.7590493l-1.663.377c-.5595578-.2604629-1.1687996-.3969113-1.786-.4-1.0538108.0414867-2.102726-.1639815-3.063-.6 1.6643396-.3410488 3.0838648-1.419211 3.859-2.931 2.8553381-.1993726 5.3787651-1.9294929 6.594-4.521.006-.012.01-.026.016-.038l.007-.017c.5027089-1.0573833.7614136-2.214207.757-3.385v-4c-.0033061-2.76005315-2.2399468-4.99669388-5-5zm-40.84 41c-2.6848166.0379303-5.24997886-1.1089299-7.012-3.135-5.092-5.625-5.48-16.71-4.973-21.787.431-4.378 1.406-10.578 4.876-13.806 1.12716194-1.12350666 2.71622873-1.65294876 4.292-1.43 4.164.513 8.643 5.271 10.64 8.346.6804672 1.049543 1.2907983 2.1429275 1.827 3.273-5.776 5.183-7.539 11.436-6.827 16.788.5654825 4.7983683 3.2252899 9.1005565 7.265 11.751zm32.86-4c1.6504143.0077141 2.9833255 1.349571 2.98 3 .0008733.2694422-.1099083.5272084-.306.712-.1787111.1859517-.4261023.2901165-.684.288l-10.288.0000316c1.7482937-.9801516 3.2481698-2.3486516 4.384-4.0000316zm6.212-22.139c.0491409-.5744803.0083163-1.1531106-.121-1.715-.0761849-.3533687-.3371485-.6381122-.6825506-.7447471-.3454021-.1066348-.7214651-.0185584-.9835934.230364-.2621283.2489223-.3695096.6199347-.280856.9703831.1270118.5425691.1249568 1.1073695-.006 1.649-.375557 1.5769841-1.7611003 2.7068118-3.3813997 2.7573292-1.6202993.0505174-3.0735343-.9908033-3.5466003-2.5413292-.3806518-1.3364323-.0083882-2.7742193.973-3.758.2504271-.2619926.3394972-.6389769.2328078-.9853455-.1066895-.3463686-.3924372-.6079005-.7468753-.6835808-.354438-.0756803-.7220822.0463381-.9609325.3189263-1.4687849 1.5013158-2.0084809 3.6807691-1.41 5.694.5097567 1.6483067 1.7480139 2.9713507 3.359 3.589.8 1.383 2.5 2.848 6.153 2.848 1.0908478-.0291753 2.0261501.7733771 2.163 1.856.0470941.5793259-.1653666 1.1496728-.58 1.557-.3736971.3765323-.8825047.5879053-1.413.587-2.1266123.0022355-4.2237864.4971782-6.127 1.446l-1.176.587c-1.336-5.432-6.968-9.523-13.697-9.523-.5522847 0-1 .4477153-1 1s.4477153 1 1 1c6.24 0 11.378 3.991 11.943 9.07v.027c.0351416.2997635.054169.601197.057.903 0 5.514-5.383 10-12 10-5.948 0-11.122-5.166-12.034-12.015-1.03-7.739 3.851-17.615 20.52-22.358.1762147.2164175.3666354.4208691.57.612.4028917.3777628 1.0357372.3573917 1.4135-.0455s.3573917-1.0357372-.0455-1.4135c-.2723485-.25369771-.5079547-.54416649-.7-.863-.4748178-.71644727-.7267507-1.5574995-.724-2.417-.0043998-2.2443027 1.6479866-4.14763794 3.8706604-4.45849965 2.2226739-.31086171 4.3338413 1.06610535 4.9453396 3.22549965.0907313.26506827.2777599.48636174.524.62.0579273.02600181.1181995.04642737.18.061.0652728.01933866.1322436.03239797.2.039.023 0 .042.013.065.013h5.215c1.6568542 0 3 1.34314575 3 3h-.32c-.5522847 0-1 .44771525-1 1 0 .5522847.4477153 1 1 1h.32v2c.001512.6816863-.1155664 1.3584403-.346 2h-2.654c-.5522847 0-1 .4477153-1 1s.4477153 1 1 1h1.478c-.8514332.9560794-1.9907473 1.6092721-3.246 1.861z"/><circle id="Oval" cx="49.5" cy="9.5" r="1.5"/><path id="Shape" d="m44.5 4c-1.3807119 0-2.5 1.11928813-2.5 2.5-.0035398.4612191.1286068.91329979.38 1.3l.077.12c.0932639.14772357.2059368.2822584.335.4.4023056.37555771 1.0324605.35544638 1.41-.045.1815023-.19356189.2786332-.45132483.2700055-.71653201-.0086276-.26520717-.1223065-.51611209-.3160055-.69746799l-.1-.154c-.039379-.06165716-.0589227-.13389889-.056-.207 0-.27614237.2238576-.5.5-.5.210333-.00196175.3973356.13352393.461.334.1471839.53240249.6980975.84468387 1.2305.69749999.5324025-.14718389.8446839-.69809749.6975-1.23049999-.3034902-1.0673626-1.2793311-1.80302162-2.389-1.801z"/></g></g></svg>